<svg xmlns="http://www.w3.org/2000/svg" id="export" class="graph" preserveAspectRatio="xMidYMid meet" style="position: absolute; margin: 0px;" width="142" height="741"><rect id="background" fill="#fff" pointer-events="all" width="142" height="741"/><g id="origin" transform="translate(6.421484375, 6.421484375) scale(1)"><g id="clusters" class="clusters"/><g id="edge-paths" class="edge-paths"><defs><marker id="arrowhead-vee" viewBox="0 0 10 10" refX="9" refY="5" markerUnits="strokeWidth" markerWidth="8" markerHeight="6" orient="auto" style="fill: rgb(0, 0, 0);"><path d="M 0 0 L 10 5 L 0 10 L 4 5 z" style="stroke-width: 1; stroke-dasharray: 1, 0;"/></marker></defs><path class="edge-path" d="M56.101566314697266,21.000001907348633L56.101566314697266,24.500001907348633C56.101566314697266,28.000001907348633,56.101566314697266,35.00000190734863,56.101566314697266,42.00000190734863C56.101566314697266,49.00000190734863,56.101566314697266,56.00000190734863,56.101566314697266,59.50000190734863L56.101566314697266,63.00000190734863" marker-end="url(#arrowhead-vee)" id="edge-input" style="stroke: rgb(0, 0, 0); stroke-width: 1px; fill: none;"/><path class="edge-path" d="M56.101566314697266,116.00000190734863L56.101566314697266,117.6666685740153C56.101566314697266,119.33333524068196,56.101566314697266,122.6666685740153,56.101566314697266,126.00000190734863C56.101566314697266,129.33333524068198,56.101566314697266,132.6666685740153,56.101566314697266,134.33333524068198L56.101566314697266,136.00000190734863" marker-end="url(#arrowhead-vee)" id="edge-conv2d_1" style="stroke: rgb(0, 0, 0); stroke-width: 1px; fill: none;"/><path class="edge-path" d="M56.101566314697266,157.23437881469727L56.101566314697266,158.90104548136392C56.101566314697266,160.5677121480306,56.101566314697266,163.90104548136392,56.101566314697266,167.23437881469727C56.101566314697266,170.5677121480306,56.101566314697266,173.90104548136392,56.101566314697266,175.5677121480306L56.101566314697266,177.23437881469727" marker-end="url(#arrowhead-vee)" id="edge-max_pooling2d_1" style="stroke: rgb(0, 0, 0); stroke-width: 1px; fill: none;"/><path class="edge-path" d="M56.101566314697266,230.23437881469727L56.101566314697266,231.90104548136392C56.101566314697266,233.5677121480306,56.101566314697266,236.90104548136392,56.101566314697266,240.23437881469727C56.101566314697266,243.5677121480306,56.101566314697266,246.90104548136392,56.101566314697266,248.5677121480306L56.101566314697266,250.23437881469727" marker-end="url(#arrowhead-vee)" id="edge-conv2d_2" style="stroke: rgb(0, 0, 0); stroke-width: 1px; fill: none;"/><path class="edge-path" d="M56.101566314697266,271.4687557220459L56.101566314697266,273.1354223887126C56.101566314697266,274.8020890553792,56.101566314697266,278.1354223887126,56.101566314697266,281.4687557220459C56.101566314697266,284.8020890553792,56.101566314697266,288.1354223887126,56.101566314697266,289.8020890553792L56.101566314697266,291.4687557220459" marker-end="url(#arrowhead-vee)" id="edge-max_pooling2d_2" style="stroke: rgb(0, 0, 0); stroke-width: 1px; fill: none;"/><path class="edge-path" d="M56.101566314697266,344.4687557220459L56.101566314697266,346.1354223887126C56.101566314697266,347.8020890553792,56.101566314697266,351.1354223887126,56.101566314697266,354.4687557220459C56.101566314697266,357.8020890553792,56.101566314697266,361.1354223887126,56.101566314697266,362.8020890553792L56.101566314697266,364.4687557220459" marker-end="url(#arrowhead-vee)" id="edge-conv2d_3" style="stroke: rgb(0, 0, 0); stroke-width: 1px; fill: none;"/><path class="edge-path" d="M56.101566314697266,385.70313262939453L56.101566314697266,387.3697992960612C56.101566314697266,389.03646596272785,56.101566314697266,392.3697992960612,56.101566314697266,395.70313262939453C56.101566314697266,399.03646596272785,56.101566314697266,402.3697992960612,56.101566314697266,404.03646596272785L56.101566314697266,405.70313262939453" marker-end="url(#arrowhead-vee)" id="edge-max_pooling2d_3" style="stroke: rgb(0, 0, 0); stroke-width: 1px; fill: none;"/><path class="edge-path" d="M56.101566314697266,458.70313262939453L56.101566314697266,460.3697992960612C56.101566314697266,462.03646596272785,56.101566314697266,465.3697992960612,56.101566314697266,468.70313262939453C56.101566314697266,472.03646596272785,56.101566314697266,475.3697992960612,56.101566314697266,477.03646596272785L56.101566314697266,478.70313262939453" marker-end="url(#arrowhead-vee)" id="edge-conv2d_4" style="stroke: rgb(0, 0, 0); stroke-width: 1px; fill: none;"/><path class="edge-path" d="M56.101566314697266,499.93750953674316L56.101566314697266,501.60417620340985C56.101566314697266,503.2708428700765,56.101566314697266,506.60417620340985,56.101566314697266,509.93750953674316C56.101566314697266,513.2708428700765,56.101566314697266,516.6041762034098,56.101566314697266,518.2708428700765L56.101566314697266,519.9375095367432" marker-end="url(#arrowhead-vee)" id="edge-max_pooling2d_4" style="stroke: rgb(0, 0, 0); stroke-width: 1px; fill: none;"/><path class="edge-path" d="M56.101566314697266,540.9375114440918L56.101566314697266,542.6041781107584C56.101566314697266,544.2708447774252,56.101566314697266,547.6041781107584,56.101566314697266,550.9375114440918C56.101566314697266,554.2708447774252,56.101566314697266,557.6041781107584,56.101566314697266,559.2708447774252L56.101566314697266,560.9375114440918" marker-end="url(#arrowhead-vee)" id="edge-flatten_1" style="stroke: rgb(0, 0, 0); stroke-width: 1px; fill: none;"/><path class="edge-path" d="M56.101566314697266,613.9375114440918L56.101566314697266,615.6041781107584C56.101566314697266,617.2708447774252,56.101566314697266,620.6041781107584,56.101566314697266,623.9375114440918C56.101566314697266,627.2708447774252,56.101566314697266,630.6041781107584,56.101566314697266,632.2708447774252L56.101566314697266,633.9375114440918" marker-end="url(#arrowhead-vee)" id="edge-dense_1" style="stroke: rgb(0, 0, 0); stroke-width: 1px; fill: none;"/><path class="edge-path" d="M56.101566314697266,686.9375114440918L56.101566314697266,688.6041781107584C56.101566314697266,690.2708447774252,56.101566314697266,693.6041781107584,56.101566314697266,696.9375114440918C56.101566314697266,700.2708447774252,56.101566314697266,703.6041781107584,56.101566314697266,705.2708447774252L56.101566314697266,706.9375114440918" marker-end="url(#arrowhead-vee)" id="edge-dense_2" style="stroke: rgb(0, 0, 0); stroke-width: 1px; fill: none;"/></g><g id="edge-labels" class="edge-labels"><g class="edge-label" transform="translate(94.26562881469727,42.00000190734863)" style="opacity: 1;"><g transform="translate(-33.1640625,-6)"><text style="font-family: -apple-system, BlinkMacSystemFont, &quot;Segoe WPC&quot;, &quot;Segoe UI&quot;, Ubuntu, &quot;Droid Sans&quot;, sans-serif; font-size: 10px;"><tspan xml:space="preserve" dy="1em" x="1">?×128×128×3</tspan></text></g></g></g><g id="nodes" class="nodes"><g id="node-conv2d_1" class="node" transform="translate(56.101566314697266,89.50000190734863)" style="opacity: 1;"><g transform="translate(-53.28125,-26.5)"><g><g class="node-item node-item-operator node-item-operator-layer" transform="translate(0,0)"><path d="M5,0h96.5625a5,5 0 0 1 5,5v16a0,0 0 0 1 0,0h-106.5625a0,0 0 0 1 0,0v-16a5,5 0 0 1 5,-5z" style="stroke: rgb(0, 0, 0); fill: rgb(51, 85, 136); stroke-width: 0;"/><text x="6" y="15" style="font-family: -apple-system, BlinkMacSystemFont, &quot;Segoe WPC&quot;, &quot;Segoe UI&quot;, Ubuntu, &quot;Droid Sans&quot;, sans-serif; font-size: 11px; text-rendering: geometricprecision; fill: rgb(255, 255, 255);">Conv2D</text><title>conv2d_1</title></g><g class="node-attribute" transform="translate(0,21)"><path d="M0,0h106.5625a0,0 0 0 1 0,0v27a5,5 0 0 1 -5,5h-96.5625a5,5 0 0 1 -5,-5v-27a0,0 0 0 1 0,0z" style="stroke: rgb(0, 0, 0); fill: rgb(255, 255, 255); stroke-width: 0;"/><text id="initializer-conv2d_1/kernel:0" xml:space="preserve" x="6" y="13" style="font-family: -apple-system, BlinkMacSystemFont, &quot;Segoe WPC&quot;, &quot;Segoe UI&quot;, Ubuntu, &quot;Droid Sans&quot;, sans-serif; font-size: 9px; font-weight: normal; text-rendering: geometricprecision;"><title>float32[3,3,3,32]</title><tspan style="font-weight: bold;">kernel</tspan><tspan>〈3×3×3×32〉</tspan></text><text id="initializer-conv2d_1/bias:0" xml:space="preserve" x="6" y="26" style="font-family: -apple-system, BlinkMacSystemFont, &quot;Segoe WPC&quot;, &quot;Segoe UI&quot;, Ubuntu, &quot;Droid Sans&quot;, sans-serif; font-size: 9px; font-weight: normal; text-rendering: geometricprecision;"><title>float32[32]</title><tspan style="font-weight: bold;">bias</tspan><tspan>〈32〉</tspan></text><line class="node" x1="0" x2="106.5625" y1="0" y2="0" style="stroke: rgb(51, 51, 51); fill: none; stroke-width: 1px;"/></g><path class="node border" d="M5,0h96.5625a5,5 0 0 1 5,5v43a5,5 0 0 1 -5,5h-96.5625a5,5 0 0 1 -5,-5v-43a5,5 0 0 1 5,-5z" style="stroke: rgb(51, 51, 51); fill: none; stroke-width: 1px;"/></g></g></g><g id="node-max_pooling2d_1" class="node" transform="translate(56.101566314697266,146.61719036102295)" style="opacity: 1;"><g transform="translate(-44.6484375,-10.617188453674316)"><g><g class="node-item node-item-operator node-item-operator-pool" transform="translate(0,0)"><path d="M5,0h79.296875a5,5 0 0 1 5,5v11.234375a5,5 0 0 1 -5,5h-79.296875a5,5 0 0 1 -5,-5v-11.234375a5,5 0 0 1 5,-5z" style="stroke: rgb(0, 0, 0); fill: rgb(51, 85, 51); stroke-width: 0;"/><text x="6" y="15" style="font-family: -apple-system, BlinkMacSystemFont, &quot;Segoe WPC&quot;, &quot;Segoe UI&quot;, Ubuntu, &quot;Droid Sans&quot;, sans-serif; font-size: 11px; text-rendering: geometricprecision; fill: rgb(255, 255, 255);">MaxPooling2D</text><title>max_pooling2d_1</title></g><path class="node border" d="M5,0h79.296875a5,5 0 0 1 5,5v11.234375a5,5 0 0 1 -5,5h-79.296875a5,5 0 0 1 -5,-5v-11.234375a5,5 0 0 1 5,-5z" style="stroke: rgb(51, 51, 51); fill: none; stroke-width: 1px;"/></g></g></g><g id="node-conv2d_2" class="node" transform="translate(56.101566314697266,203.73437881469727)" style="opacity: 1;"><g transform="translate(-56.101566314697266,-26.5)"><g><g class="node-item node-item-operator node-item-operator-layer" transform="translate(0,0)"><path d="M5,0h102.203125a5,5 0 0 1 5,5v16a0,0 0 0 1 0,0h-112.203125a0,0 0 0 1 0,0v-16a5,5 0 0 1 5,-5z" style="stroke: rgb(0, 0, 0); fill: rgb(51, 85, 136); stroke-width: 0;"/><text x="6" y="15" style="font-family: -apple-system, BlinkMacSystemFont, &quot;Segoe WPC&quot;, &quot;Segoe UI&quot;, Ubuntu, &quot;Droid Sans&quot;, sans-serif; font-size: 11px; text-rendering: geometricprecision; fill: rgb(255, 255, 255);">Conv2D</text><title>conv2d_2</title></g><g class="node-attribute" transform="translate(0,21)"><path d="M0,0h112.203125a0,0 0 0 1 0,0v27a5,5 0 0 1 -5,5h-102.203125a5,5 0 0 1 -5,-5v-27a0,0 0 0 1 0,0z" style="stroke: rgb(0, 0, 0); fill: rgb(255, 255, 255); stroke-width: 0;"/><text id="initializer-conv2d_2/kernel:0" xml:space="preserve" x="6" y="13" style="font-family: -apple-system, BlinkMacSystemFont, &quot;Segoe WPC&quot;, &quot;Segoe UI&quot;, Ubuntu, &quot;Droid Sans&quot;, sans-serif; font-size: 9px; font-weight: normal; text-rendering: geometricprecision;"><title>float32[3,3,32,20]</title><tspan style="font-weight: bold;">kernel</tspan><tspan>〈3×3×32×20〉</tspan></text><text id="initializer-conv2d_2/bias:0" xml:space="preserve" x="6" y="26" style="font-family: -apple-system, BlinkMacSystemFont, &quot;Segoe WPC&quot;, &quot;Segoe UI&quot;, Ubuntu, &quot;Droid Sans&quot;, sans-serif; font-size: 9px; font-weight: normal; text-rendering: geometricprecision;"><title>float32[20]</title><tspan style="font-weight: bold;">bias</tspan><tspan>〈20〉</tspan></text><line class="node" x1="0" x2="112.203125" y1="0" y2="0" style="stroke: rgb(51, 51, 51); fill: none; stroke-width: 1px;"/></g><path class="node border" d="M5,0h102.203125a5,5 0 0 1 5,5v43a5,5 0 0 1 -5,5h-102.203125a5,5 0 0 1 -5,-5v-43a5,5 0 0 1 5,-5z" style="stroke: rgb(51, 51, 51); fill: none; stroke-width: 1px;"/></g></g></g><g id="node-max_pooling2d_2" class="node" transform="translate(56.101566314697266,260.8515672683716)" style="opacity: 1;"><g transform="translate(-44.6484375,-10.617188453674316)"><g><g class="node-item node-item-operator node-item-operator-pool" transform="translate(0,0)"><path d="M5,0h79.296875a5,5 0 0 1 5,5v11.234375a5,5 0 0 1 -5,5h-79.296875a5,5 0 0 1 -5,-5v-11.234375a5,5 0 0 1 5,-5z" style="stroke: rgb(0, 0, 0); fill: rgb(51, 85, 51); stroke-width: 0;"/><text x="6" y="15" style="font-family: -apple-system, BlinkMacSystemFont, &quot;Segoe WPC&quot;, &quot;Segoe UI&quot;, Ubuntu, &quot;Droid Sans&quot;, sans-serif; font-size: 11px; text-rendering: geometricprecision; fill: rgb(255, 255, 255);">MaxPooling2D</text><title>max_pooling2d_2</title></g><path class="node border" d="M5,0h79.296875a5,5 0 0 1 5,5v11.234375a5,5 0 0 1 -5,5h-79.296875a5,5 0 0 1 -5,-5v-11.234375a5,5 0 0 1 5,-5z" style="stroke: rgb(51, 51, 51); fill: none; stroke-width: 1px;"/></g></g></g><g id="node-conv2d_3" class="node" transform="translate(56.101566314697266,317.9687557220459)" style="opacity: 1;"><g transform="translate(-55.375,-26.5)"><g><g class="node-item node-item-operator node-item-operator-layer" transform="translate(0,0)"><path d="M5,0h100.75a5,5 0 0 1 5,5v16a0,0 0 0 1 0,0h-110.75a0,0 0 0 1 0,0v-16a5,5 0 0 1 5,-5z" style="stroke: rgb(0, 0, 0); fill: rgb(51, 85, 136); stroke-width: 0;"/><text x="6" y="15" style="font-family: -apple-system, BlinkMacSystemFont, &quot;Segoe WPC&quot;, &quot;Segoe UI&quot;, Ubuntu, &quot;Droid Sans&quot;, sans-serif; font-size: 11px; text-rendering: geometricprecision; fill: rgb(255, 255, 255);">Conv2D</text><title>conv2d_3</title></g><g class="node-attribute" transform="translate(0,21)"><path d="M0,0h110.75a0,0 0 0 1 0,0v27a5,5 0 0 1 -5,5h-100.75a5,5 0 0 1 -5,-5v-27a0,0 0 0 1 0,0z" style="stroke: rgb(0, 0, 0); fill: rgb(255, 255, 255); stroke-width: 0;"/><text id="initializer-conv2d_3/kernel:0" xml:space="preserve" x="6" y="13" style="font-family: -apple-system, BlinkMacSystemFont, &quot;Segoe WPC&quot;, &quot;Segoe UI&quot;, Ubuntu, &quot;Droid Sans&quot;, sans-serif; font-size: 9px; font-weight: normal; text-rendering: geometricprecision;"><title>float32[3,3,20,12]</title><tspan style="font-weight: bold;">kernel</tspan><tspan>〈3×3×20×12〉</tspan></text><text id="initializer-conv2d_3/bias:0" xml:space="preserve" x="6" y="26" style="font-family: -apple-system, BlinkMacSystemFont, &quot;Segoe WPC&quot;, &quot;Segoe UI&quot;, Ubuntu, &quot;Droid Sans&quot;, sans-serif; font-size: 9px; font-weight: normal; text-rendering: geometricprecision;"><title>float32[12]</title><tspan style="font-weight: bold;">bias</tspan><tspan>〈12〉</tspan></text><line class="node" x1="0" x2="110.75" y1="0" y2="0" style="stroke: rgb(51, 51, 51); fill: none; stroke-width: 1px;"/></g><path class="node border" d="M5,0h100.75a5,5 0 0 1 5,5v43a5,5 0 0 1 -5,5h-100.75a5,5 0 0 1 -5,-5v-43a5,5 0 0 1 5,-5z" style="stroke: rgb(51, 51, 51); fill: none; stroke-width: 1px;"/></g></g></g><g id="node-max_pooling2d_3" class="node" transform="translate(56.101566314697266,375.0859441757202)" style="opacity: 1;"><g transform="translate(-44.6484375,-10.617188453674316)"><g><g class="node-item node-item-operator node-item-operator-pool" transform="translate(0,0)"><path d="M5,0h79.296875a5,5 0 0 1 5,5v11.234375a5,5 0 0 1 -5,5h-79.296875a5,5 0 0 1 -5,-5v-11.234375a5,5 0 0 1 5,-5z" style="stroke: rgb(0, 0, 0); fill: rgb(51, 85, 51); stroke-width: 0;"/><text x="6" y="15" style="font-family: -apple-system, BlinkMacSystemFont, &quot;Segoe WPC&quot;, &quot;Segoe UI&quot;, Ubuntu, &quot;Droid Sans&quot;, sans-serif; font-size: 11px; text-rendering: geometricprecision; fill: rgb(255, 255, 255);">MaxPooling2D</text><title>max_pooling2d_3</title></g><path class="node border" d="M5,0h79.296875a5,5 0 0 1 5,5v11.234375a5,5 0 0 1 -5,5h-79.296875a5,5 0 0 1 -5,-5v-11.234375a5,5 0 0 1 5,-5z" style="stroke: rgb(51, 51, 51); fill: none; stroke-width: 1px;"/></g></g></g><g id="node-conv2d_4" class="node" transform="translate(56.101566314697266,432.20313262939453)" style="opacity: 1;"><g transform="translate(-52.6171875,-26.5)"><g><g class="node-item node-item-operator node-item-operator-layer" transform="translate(0,0)"><path d="M5,0h95.234375a5,5 0 0 1 5,5v16a0,0 0 0 1 0,0h-105.234375a0,0 0 0 1 0,0v-16a5,5 0 0 1 5,-5z" style="stroke: rgb(0, 0, 0); fill: rgb(51, 85, 136); stroke-width: 0;"/><text x="6" y="15" style="font-family: -apple-system, BlinkMacSystemFont, &quot;Segoe WPC&quot;, &quot;Segoe UI&quot;, Ubuntu, &quot;Droid Sans&quot;, sans-serif; font-size: 11px; text-rendering: geometricprecision; fill: rgb(255, 255, 255);">Conv2D</text><title>conv2d_4</title></g><g class="node-attribute" transform="translate(0,21)"><path d="M0,0h105.234375a0,0 0 0 1 0,0v27a5,5 0 0 1 -5,5h-95.234375a5,5 0 0 1 -5,-5v-27a0,0 0 0 1 0,0z" style="stroke: rgb(0, 0, 0); fill: rgb(255, 255, 255); stroke-width: 0;"/><text id="initializer-conv2d_4/kernel:0" xml:space="preserve" x="6" y="13" style="font-family: -apple-system, BlinkMacSystemFont, &quot;Segoe WPC&quot;, &quot;Segoe UI&quot;, Ubuntu, &quot;Droid Sans&quot;, sans-serif; font-size: 9px; font-weight: normal; text-rendering: geometricprecision;"><title>float32[3,3,12,8]</title><tspan style="font-weight: bold;">kernel</tspan><tspan>〈3×3×12×8〉</tspan></text><text id="initializer-conv2d_4/bias:0" xml:space="preserve" x="6" y="26" style="font-family: -apple-system, BlinkMacSystemFont, &quot;Segoe WPC&quot;, &quot;Segoe UI&quot;, Ubuntu, &quot;Droid Sans&quot;, sans-serif; font-size: 9px; font-weight: normal; text-rendering: geometricprecision;"><title>float32[8]</title><tspan style="font-weight: bold;">bias</tspan><tspan>〈8〉</tspan></text><line class="node" x1="0" x2="105.234375" y1="0" y2="0" style="stroke: rgb(51, 51, 51); fill: none; stroke-width: 1px;"/></g><path class="node border" d="M5,0h95.234375a5,5 0 0 1 5,5v43a5,5 0 0 1 -5,5h-95.234375a5,5 0 0 1 -5,-5v-43a5,5 0 0 1 5,-5z" style="stroke: rgb(51, 51, 51); fill: none; stroke-width: 1px;"/></g></g></g><g id="node-max_pooling2d_4" class="node" transform="translate(56.101566314697266,489.32032108306885)" style="opacity: 1;"><g transform="translate(-44.6484375,-10.617188453674316)"><g><g class="node-item node-item-operator node-item-operator-pool" transform="translate(0,0)"><path d="M5,0h79.296875a5,5 0 0 1 5,5v11.234375a5,5 0 0 1 -5,5h-79.296875a5,5 0 0 1 -5,-5v-11.234375a5,5 0 0 1 5,-5z" style="stroke: rgb(0, 0, 0); fill: rgb(51, 85, 51); stroke-width: 0;"/><text x="6" y="15" style="font-family: -apple-system, BlinkMacSystemFont, &quot;Segoe WPC&quot;, &quot;Segoe UI&quot;, Ubuntu, &quot;Droid Sans&quot;, sans-serif; font-size: 11px; text-rendering: geometricprecision; fill: rgb(255, 255, 255);">MaxPooling2D</text><title>max_pooling2d_4</title></g><path class="node border" d="M5,0h79.296875a5,5 0 0 1 5,5v11.234375a5,5 0 0 1 -5,5h-79.296875a5,5 0 0 1 -5,-5v-11.234375a5,5 0 0 1 5,-5z" style="stroke: rgb(51, 51, 51); fill: none; stroke-width: 1px;"/></g></g></g><g id="node-flatten_1" class="node" transform="translate(56.101566314697266,530.4375104904175)" style="opacity: 1;"><g transform="translate(-25.101564407348633,-10.500000953674316)"><g><g class="node-item node-item-operator node-item-operator-shape" transform="translate(0,0)"><path d="M5,0h40.203125a5,5 0 0 1 5,5v11a5,5 0 0 1 -5,5h-40.203125a5,5 0 0 1 -5,-5v-11a5,5 0 0 1 5,-5z" style="stroke: rgb(0, 0, 0); fill: rgb(108, 79, 71); stroke-width: 0;"/><text x="6" y="15" style="font-family: -apple-system, BlinkMacSystemFont, &quot;Segoe WPC&quot;, &quot;Segoe UI&quot;, Ubuntu, &quot;Droid Sans&quot;, sans-serif; font-size: 11px; text-rendering: geometricprecision; fill: rgb(255, 255, 255);">Flatten</text><title>flatten_1</title></g><path class="node border" d="M5,0h40.203125a5,5 0 0 1 5,5v11a5,5 0 0 1 -5,5h-40.203125a5,5 0 0 1 -5,-5v-11a5,5 0 0 1 5,-5z" style="stroke: rgb(51, 51, 51); fill: none; stroke-width: 1px;"/></g></g></g><g id="node-dense_1" class="node" transform="translate(56.101566314697266,587.4375114440918)" style="opacity: 1;"><g transform="translate(-50,-26.5)"><g><g class="node-item node-item-operator node-item-operator-layer" transform="translate(0,0)"><path d="M5,0h90a5,5 0 0 1 5,5v16a0,0 0 0 1 0,0h-100a0,0 0 0 1 0,0v-16a5,5 0 0 1 5,-5z" style="stroke: rgb(0, 0, 0); fill: rgb(51, 85, 136); stroke-width: 0;"/><text x="6" y="15" style="font-family: -apple-system, BlinkMacSystemFont, &quot;Segoe WPC&quot;, &quot;Segoe UI&quot;, Ubuntu, &quot;Droid Sans&quot;, sans-serif; font-size: 11px; text-rendering: geometricprecision; fill: rgb(255, 255, 255);">Dense</text><title>dense_1</title></g><g class="node-attribute" transform="translate(0,21)"><path d="M0,0h100a0,0 0 0 1 0,0v27a5,5 0 0 1 -5,5h-90a5,5 0 0 1 -5,-5v-27a0,0 0 0 1 0,0z" style="stroke: rgb(0, 0, 0); fill: rgb(255, 255, 255); stroke-width: 0;"/><text id="initializer-dense_1/kernel:0" xml:space="preserve" x="6" y="13" style="font-family: -apple-system, BlinkMacSystemFont, &quot;Segoe WPC&quot;, &quot;Segoe UI&quot;, Ubuntu, &quot;Droid Sans&quot;, sans-serif; font-size: 9px; font-weight: normal; text-rendering: geometricprecision;"><title>float32[288,128]</title><tspan style="font-weight: bold;">kernel</tspan><tspan>〈288×128〉</tspan></text><text id="initializer-dense_1/bias:0" xml:space="preserve" x="6" y="26" style="font-family: -apple-system, BlinkMacSystemFont, &quot;Segoe WPC&quot;, &quot;Segoe UI&quot;, Ubuntu, &quot;Droid Sans&quot;, sans-serif; font-size: 9px; font-weight: normal; text-rendering: geometricprecision;"><title>float32[128]</title><tspan style="font-weight: bold;">bias</tspan><tspan>〈128〉</tspan></text><line class="node" x1="0" x2="100" y1="0" y2="0" style="stroke: rgb(51, 51, 51); fill: none; stroke-width: 1px;"/></g><path class="node border" d="M5,0h90a5,5 0 0 1 5,5v43a5,5 0 0 1 -5,5h-90a5,5 0 0 1 -5,-5v-43a5,5 0 0 1 5,-5z" style="stroke: rgb(51, 51, 51); fill: none; stroke-width: 1px;"/></g></g></g><g id="node-dense_2" class="node" transform="translate(56.101566314697266,660.4375114440918)" style="opacity: 1;"><g transform="translate(-50,-26.5)"><g><g class="node-item node-item-operator node-item-operator-layer" transform="translate(0,0)"><path d="M5,0h90a5,5 0 0 1 5,5v16a0,0 0 0 1 0,0h-100a0,0 0 0 1 0,0v-16a5,5 0 0 1 5,-5z" style="stroke: rgb(0, 0, 0); fill: rgb(51, 85, 136); stroke-width: 0;"/><text x="6" y="15" style="font-family: -apple-system, BlinkMacSystemFont, &quot;Segoe WPC&quot;, &quot;Segoe UI&quot;, Ubuntu, &quot;Droid Sans&quot;, sans-serif; font-size: 11px; text-rendering: geometricprecision; fill: rgb(255, 255, 255);">Dense</text><title>dense_2</title></g><g class="node-attribute" transform="translate(0,21)"><path d="M0,0h100a0,0 0 0 1 0,0v27a5,5 0 0 1 -5,5h-90a5,5 0 0 1 -5,-5v-27a0,0 0 0 1 0,0z" style="stroke: rgb(0, 0, 0); fill: rgb(255, 255, 255); stroke-width: 0;"/><text id="initializer-dense_2/kernel:0" xml:space="preserve" x="6" y="13" style="font-family: -apple-system, BlinkMacSystemFont, &quot;Segoe WPC&quot;, &quot;Segoe UI&quot;, Ubuntu, &quot;Droid Sans&quot;, sans-serif; font-size: 9px; font-weight: normal; text-rendering: geometricprecision;"><title>float32[128,1]</title><tspan style="font-weight: bold;">kernel</tspan><tspan>〈128×1〉</tspan></text><text id="initializer-dense_2/bias:0" xml:space="preserve" x="6" y="26" style="font-family: -apple-system, BlinkMacSystemFont, &quot;Segoe WPC&quot;, &quot;Segoe UI&quot;, Ubuntu, &quot;Droid Sans&quot;, sans-serif; font-size: 9px; font-weight: normal; text-rendering: geometricprecision;"><title>float32[1]</title><tspan style="font-weight: bold;">bias</tspan><tspan>〈1〉</tspan></text><line class="node" x1="0" x2="100" y1="0" y2="0" style="stroke: rgb(51, 51, 51); fill: none; stroke-width: 1px;"/></g><path class="node border" d="M5,0h90a5,5 0 0 1 5,5v43a5,5 0 0 1 -5,5h-90a5,5 0 0 1 -5,-5v-43a5,5 0 0 1 5,-5z" style="stroke: rgb(51, 51, 51); fill: none; stroke-width: 1px;"/></g></g></g><g class="node graph-input" transform="translate(56.101566314697266,10.500000953674316)" style="opacity: 1;"><g transform="translate(-20.2890625,-10.500000953674316)"><g><g class="node-item graph-item-input" transform="translate(0,0)"><path d="M5,0h30.578125a5,5 0 0 1 5,5v11a5,5 0 0 1 -5,5h-30.578125a5,5 0 0 1 -5,-5v-11a5,5 0 0 1 5,-5z" style="stroke: rgb(0, 0, 0); fill: rgb(238, 238, 238); stroke-width: 0;"/><text x="6" y="15" style="font-family: -apple-system, BlinkMacSystemFont, &quot;Segoe WPC&quot;, &quot;Segoe UI&quot;, Ubuntu, &quot;Droid Sans&quot;, sans-serif; font-size: 11px; text-rendering: geometricprecision;">input</text><title>float32[?,128,128,3]</title></g><path class="node border" d="M5,0h30.578125a5,5 0 0 1 5,5v11a5,5 0 0 1 -5,5h-30.578125a5,5 0 0 1 -5,-5v-11a5,5 0 0 1 5,-5z" style="stroke: rgb(51, 51, 51); fill: none; stroke-width: 1px;"/></g></g></g><g class="node" transform="translate(56.101566314697266,717.4375123977661)" style="opacity: 1;"><g transform="translate(-28.6796875,-10.500000953674316)"><g><g class="node-item graph-item-output" transform="translate(0,0)"><path d="M5,0h47.359375a5,5 0 0 1 5,5v11a5,5 0 0 1 -5,5h-47.359375a5,5 0 0 1 -5,-5v-11a5,5 0 0 1 5,-5z" style="stroke: rgb(0, 0, 0); fill: rgb(238, 238, 238); stroke-width: 0;"/><text x="6" y="15" style="font-family: -apple-system, BlinkMacSystemFont, &quot;Segoe WPC&quot;, &quot;Segoe UI&quot;, Ubuntu, &quot;Droid Sans&quot;, sans-serif; font-size: 11px; text-rendering: geometricprecision;">dense_2</text></g><path class="node border" d="M5,0h47.359375a5,5 0 0 1 5,5v11a5,5 0 0 1 -5,5h-47.359375a5,5 0 0 1 -5,-5v-11a5,5 0 0 1 5,-5z" style="stroke: rgb(51, 51, 51); fill: none; stroke-width: 1px;"/></g></g></g></g></g></svg>