<svg xmlns="http://www.w3.org/2000/svg" id="export" class="graph" preserveAspectRatio="xMidYMid meet" style="position: absolute; margin: 0px;" width="138" height="1245"><rect id="background" fill="#fff" pointer-events="all" width="138" height="1245"/><g id="origin" transform="translate(6.23125, 6.23125) scale(1)"><g id="clusters" class="clusters"/><g id="edge-paths" class="edge-paths"><defs><marker id="arrowhead-vee" viewBox="0 0 10 10" refX="9" refY="5" markerUnits="strokeWidth" markerWidth="8" markerHeight="6" orient="auto" style="fill: rgb(0, 0, 0);"><path d="M 0 0 L 10 5 L 0 10 L 4 5 z" style="stroke-width: 1; stroke-dasharray: 1, 0;"/></marker></defs><path class="edge-path" d="M50,21.000001907348633L50,24.500001907348633C50,28.000001907348633,50,35.00000190734863,50,42.00000190734863C50,49.00000190734863,50,56.00000190734863,50,59.50000190734863L50,63.00000190734863" marker-end="url(#arrowhead-vee)" id="edge-conv2d_1_input" style="stroke: rgb(0, 0, 0); stroke-width: 1px; fill: none;"/><path class="edge-path" d="M50,84.00000381469727L50,85.66667048136394C50,87.3333371480306,50,90.66667048136394,50,94.00000381469727C50,97.3333371480306,50,100.66667048136394,50,102.3333371480306L50,104.00000381469727" marker-end="url(#arrowhead-vee)" id="edge-adjusted_input3" style="stroke: rgb(0, 0, 0); stroke-width: 1px; fill: none;"/><path class="edge-path" d="M50,157.00000381469727L50,158.66667048136392C50,160.3333371480306,50,163.66667048136392,50,167.00000381469727C50,170.3333371480306,50,173.66667048136392,50,175.3333371480306L50,177.00000381469727" marker-end="url(#arrowhead-vee)" id="edge-convolution_output3" style="stroke: rgb(0, 0, 0); stroke-width: 1px; fill: none;"/><path class="edge-path" d="M50,198.0000057220459L50,199.66667238871256C50,201.33333905537924,50,204.66667238871256,50,208.0000057220459C50,211.33333905537924,50,214.66667238871256,50,216.33333905537924L50,218.0000057220459" marker-end="url(#arrowhead-vee)" id="edge-conv2d_1/Relu:0" style="stroke: rgb(0, 0, 0); stroke-width: 1px; fill: none;"/><path class="edge-path" d="M50,239.00000762939453L50,240.6666742960612C50,242.33334096272787,50,245.6666742960612,50,249.00000762939453C50,252.33334096272787,50,255.6666742960612,50,257.33334096272785L50,259.00000762939453" marker-end="url(#arrowhead-vee)" id="edge-conv2d_1/Relu:0_pooling0" style="stroke: rgb(0, 0, 0); stroke-width: 1px; fill: none;"/><path class="edge-path" d="M50,312.00000762939453L50,313.6666742960612C50,315.33334096272785,50,318.6666742960612,50,322.00000762939453C50,325.33334096272785,50,328.6666742960612,50,330.33334096272785L50,332.00000762939453" marker-end="url(#arrowhead-vee)" id="edge-convolution_output2" style="stroke: rgb(0, 0, 0); stroke-width: 1px; fill: none;"/><path class="edge-path" d="M50,353.00000953674316L50,354.66667620340985C50,356.3333428700765,50,359.66667620340985,50,363.00000953674316C50,366.3333428700765,50,369.66667620340985,50,371.3333428700765L50,373.00000953674316" marker-end="url(#arrowhead-vee)" id="edge-conv2d_2/Relu:0" style="stroke: rgb(0, 0, 0); stroke-width: 1px; fill: none;"/><path class="edge-path" d="M50,394.0000114440918L50,395.6666781107585C50,397.3333447774251,50,400.6666781107585,50,404.0000114440918C50,407.3333447774251,50,410.6666781107585,50,412.3333447774251L50,414.0000114440918" marker-end="url(#arrowhead-vee)" id="edge-conv2d_2/Relu:0_pooling0" style="stroke: rgb(0, 0, 0); stroke-width: 1px; fill: none;"/><path class="edge-path" d="M50,467.0000114440918L50,468.6666781107585C50,470.3333447774251,50,473.6666781107585,50,477.0000114440918C50,480.3333447774251,50,483.6666781107585,50,485.3333447774251L50,487.0000114440918" marker-end="url(#arrowhead-vee)" id="edge-convolution_output1" style="stroke: rgb(0, 0, 0); stroke-width: 1px; fill: none;"/><path class="edge-path" d="M50,508.00001335144043L50,509.6666800181071C50,511.33334668477374,50,514.6666800181071,50,518.0000133514404C50,521.3333466847738,50,524.6666800181071,50,526.3333466847738L50,528.0000133514404" marker-end="url(#arrowhead-vee)" id="edge-conv2d_3/Relu:0" style="stroke: rgb(0, 0, 0); stroke-width: 1px; fill: none;"/><path class="edge-path" d="M50,549.0000152587891L50,550.6666819254557C50,552.3333485921224,50,555.6666819254557,50,559.0000152587891C50,562.3333485921224,50,565.6666819254557,50,567.3333485921224L50,569.0000152587891" marker-end="url(#arrowhead-vee)" id="edge-conv2d_3/Relu:0_pooling0" style="stroke: rgb(0, 0, 0); stroke-width: 1px; fill: none;"/><path class="edge-path" d="M50,622.0000152587891L50,623.6666819254557C50,625.3333485921224,50,628.6666819254557,50,632.0000152587891C50,635.3333485921224,50,638.6666819254557,50,640.3333485921224L50,642.0000152587891" marker-end="url(#arrowhead-vee)" id="edge-convolution_output" style="stroke: rgb(0, 0, 0); stroke-width: 1px; fill: none;"/><path class="edge-path" d="M50,663.0000171661377L50,664.6666838328043C50,666.3333504994711,50,669.6666838328043,50,673.0000171661377C50,676.3333504994711,50,679.6666838328043,50,681.3333504994711L50,683.0000171661377" marker-end="url(#arrowhead-vee)" id="edge-conv2d_4/Relu:0" style="stroke: rgb(0, 0, 0); stroke-width: 1px; fill: none;"/><path class="edge-path" d="M50,704.0000190734863L50,705.666685740153C50,707.3333524068197,50,710.666685740153,50,714.0000190734863C50,717.3333524068197,50,720.666685740153,50,722.3333524068197L50,724.0000190734863" marker-end="url(#arrowhead-vee)" id="edge-conv2d_4/Relu:0_pooling0" style="stroke: rgb(0, 0, 0); stroke-width: 1px; fill: none;"/><path class="edge-path" d="M50,745.000020980835L50,746.6666876475016C50,748.3333543141683,50,751.6666876475016,50,755.000020980835C50,758.3333543141683,50,761.6666876475016,50,763.3333543141683L50,765.000020980835" marker-end="url(#arrowhead-vee)" id="edge-conv2d_4/Relu:0_transpose0" style="stroke: rgb(0, 0, 0); stroke-width: 1px; fill: none;"/><path class="edge-path" d="M50,805.000020980835L50,806.6666876475016C50,808.3333543141683,50,811.6666876475016,50,815.000020980835C50,818.3333543141683,50,821.6666876475016,50,823.3333543141683L50,825.000020980835" marker-end="url(#arrowhead-vee)" id="edge-flatten_1/Reshape:0" style="stroke: rgb(0, 0, 0); stroke-width: 1px; fill: none;"/><path class="edge-path" d="M50,865.000020980835L50,866.6666876475016C50,868.3333543141683,50,871.6666876475016,50,875.000020980835C50,878.3333543141683,50,881.6666876475016,50,883.3333543141683L50,885.000020980835" marker-end="url(#arrowhead-vee)" id="edge-transformed_tensor1" style="stroke: rgb(0, 0, 0); stroke-width: 1px; fill: none;"/><path class="edge-path" d="M50,925.000020980835L50,926.6666876475016C50,928.3333543141683,50,931.6666876475016,50,935.000020980835C50,938.3333543141683,50,941.6666876475016,50,943.3333543141683L50,945.000020980835" marker-end="url(#arrowhead-vee)" id="edge-biased_tensor_name1" style="stroke: rgb(0, 0, 0); stroke-width: 1px; fill: none;"/><path class="edge-path" d="M50,966.0000228881836L50,967.6666895548502C50,969.333356221517,50,972.6666895548502,50,976.0000228881836C50,979.333356221517,50,982.6666895548502,50,984.333356221517L50,986.0000228881836" marker-end="url(#arrowhead-vee)" id="edge-dense_1/Relu:0" style="stroke: rgb(0, 0, 0); stroke-width: 1px; fill: none;"/><path class="edge-path" d="M50,1026.0000228881836L50,1027.6666895548503C50,1029.3333562215169,50,1032.6666895548503,50,1036.0000228881836C50,1039.3333562215169,50,1042.6666895548503,50,1044.3333562215169L50,1046.0000228881836" marker-end="url(#arrowhead-vee)" id="edge-transformed_tensor" style="stroke: rgb(0, 0, 0); stroke-width: 1px; fill: none;"/><path class="edge-path" d="M50,1086.0000228881836L50,1087.6666895548503C50,1089.3333562215169,50,1092.6666895548503,50,1096.0000228881836C50,1099.3333562215169,50,1102.6666895548503,50,1104.3333562215169L50,1106.0000228881836" marker-end="url(#arrowhead-vee)" id="edge-biased_tensor_name" style="stroke: rgb(0, 0, 0); stroke-width: 1px; fill: none;"/><path class="edge-path" d="M50,1127.2343997955322L50,1128.901066462199C50,1130.5677331288655,50,1133.901066462199,50,1137.2343997955322C50,1140.5677331288655,50,1143.901066462199,50,1145.5677331288655L50,1147.2343997955322" marker-end="url(#arrowhead-vee)" id="edge-dense_2/Sigmoid:01" style="stroke: rgb(0, 0, 0); stroke-width: 1px; fill: none;"/><path class="edge-path" d="M50,1168.3437747955322L50,1171.8437747955322C50,1175.3437747955322,50,1182.3437747955322,50,1189.3437747955322C50,1196.3437747955322,50,1203.3437747955322,50,1206.8437747955322L50,1210.3437747955322" marker-end="url(#arrowhead-vee)" id="edge-dense_2/Sigmoid:0" style="stroke: rgb(0, 0, 0); stroke-width: 1px; fill: none;"/></g><g id="edge-labels" class="edge-labels"><g class="edge-label" transform="translate(89.3125,42.00000190734863)" style="opacity: 1;"><g transform="translate(-34.3125,-6)"><text style="font-family: -apple-system, BlinkMacSystemFont, &quot;Segoe WPC&quot;, &quot;Segoe UI&quot;, Ubuntu, &quot;Droid Sans&quot;, sans-serif; font-size: 10px;"><tspan xml:space="preserve" dy="1em" x="1">N×128×128×3</tspan></text></g></g><g class="edge-label" transform="translate(64.4609375,1189.3437747955322)" style="opacity: 1;"><g transform="translate(-9.4609375,-6)"><text style="font-family: -apple-system, BlinkMacSystemFont, &quot;Segoe WPC&quot;, &quot;Segoe UI&quot;, Ubuntu, &quot;Droid Sans&quot;, sans-serif; font-size: 10px;"><tspan xml:space="preserve" dy="1em" x="1">N×1</tspan></text></g></g></g><g id="nodes" class="nodes"><g id="node-Transpose10" class="node" transform="translate(50,73.50000286102295)" style="opacity: 1;"><g transform="translate(-34.21875,-10.500000953674316)"><g><g class="node-item node-item-operator node-item-operator-shape" transform="translate(0,0)"><path d="M5,0h58.4375a5,5 0 0 1 5,5v11a5,5 0 0 1 -5,5h-58.4375a5,5 0 0 1 -5,-5v-11a5,5 0 0 1 5,-5z" style="stroke: rgb(0, 0, 0); fill: rgb(108, 79, 71); stroke-width: 0;"/><text x="6" y="15" style="font-family: -apple-system, BlinkMacSystemFont, &quot;Segoe WPC&quot;, &quot;Segoe UI&quot;, Ubuntu, &quot;Droid Sans&quot;, sans-serif; font-size: 11px; text-rendering: geometricprecision; fill: rgb(255, 255, 255);">Transpose</text><title>Transpose10</title></g><path class="node border" d="M5,0h58.4375a5,5 0 0 1 5,5v11a5,5 0 0 1 -5,5h-58.4375a5,5 0 0 1 -5,-5v-11a5,5 0 0 1 5,-5z" style="stroke: rgb(51, 51, 51); fill: none; stroke-width: 1px;"/></g></g></g><g id="node-conv2d_1" class="node" transform="translate(50,130.50000381469727)" style="opacity: 1;"><g transform="translate(-50,-26.5)"><g><g class="node-item node-item-operator node-item-operator-layer" transform="translate(0,0)"><path d="M5,0h90a5,5 0 0 1 5,5v16a0,0 0 0 1 0,0h-100a0,0 0 0 1 0,0v-16a5,5 0 0 1 5,-5z" style="stroke: rgb(0, 0, 0); fill: rgb(51, 85, 136); stroke-width: 0;"/><text x="6" y="15" style="font-family: -apple-system, BlinkMacSystemFont, &quot;Segoe WPC&quot;, &quot;Segoe UI&quot;, Ubuntu, &quot;Droid Sans&quot;, sans-serif; font-size: 11px; text-rendering: geometricprecision; fill: rgb(255, 255, 255);">Conv</text><title>conv2d_1</title></g><g class="node-attribute" transform="translate(0,21)"><path d="M0,0h100a0,0 0 0 1 0,0v27a5,5 0 0 1 -5,5h-90a5,5 0 0 1 -5,-5v-27a0,0 0 0 1 0,0z" style="stroke: rgb(0, 0, 0); fill: rgb(255, 255, 255); stroke-width: 0;"/><text id="initializer-conv2d_1/kernel:0" xml:space="preserve" x="6" y="13" style="font-family: -apple-system, BlinkMacSystemFont, &quot;Segoe WPC&quot;, &quot;Segoe UI&quot;, Ubuntu, &quot;Droid Sans&quot;, sans-serif; font-size: 9px; font-weight: normal; text-rendering: geometricprecision;"><title>float32[32,3,3,3]</title><tspan style="font-weight: bold;">W</tspan><tspan>〈32×3×3×3〉</tspan></text><text id="initializer-conv2d_1/bias:0" xml:space="preserve" x="6" y="26" style="font-family: -apple-system, BlinkMacSystemFont, &quot;Segoe WPC&quot;, &quot;Segoe UI&quot;, Ubuntu, &quot;Droid Sans&quot;, sans-serif; font-size: 9px; font-weight: normal; text-rendering: geometricprecision;"><title>float32[32]</title><tspan style="font-weight: bold;">B</tspan><tspan>〈32〉</tspan></text><line class="node" x1="0" x2="100" y1="0" y2="0" style="stroke: rgb(51, 51, 51); fill: none; stroke-width: 1px;"/></g><path class="node border" d="M5,0h90a5,5 0 0 1 5,5v43a5,5 0 0 1 -5,5h-90a5,5 0 0 1 -5,-5v-43a5,5 0 0 1 5,-5z" style="stroke: rgb(51, 51, 51); fill: none; stroke-width: 1px;"/></g></g></g><g id="node-Relu4" class="node" transform="translate(50,187.50000476837158)" style="opacity: 1;"><g transform="translate(-18.3828125,-10.500000953674316)"><g><g class="node-item node-item-operator node-item-operator-activation" transform="translate(0,0)"><path d="M5,0h26.765625a5,5 0 0 1 5,5v11a5,5 0 0 1 -5,5h-26.765625a5,5 0 0 1 -5,-5v-11a5,5 0 0 1 5,-5z" style="stroke: rgb(0, 0, 0); fill: rgb(75, 27, 22); stroke-width: 0;"/><text x="6" y="15" style="font-family: -apple-system, BlinkMacSystemFont, &quot;Segoe WPC&quot;, &quot;Segoe UI&quot;, Ubuntu, &quot;Droid Sans&quot;, sans-serif; font-size: 11px; text-rendering: geometricprecision; fill: rgb(255, 255, 255);">Relu</text><title>Relu4</title></g><path class="node border" d="M5,0h26.765625a5,5 0 0 1 5,5v11a5,5 0 0 1 -5,5h-26.765625a5,5 0 0 1 -5,-5v-11a5,5 0 0 1 5,-5z" style="stroke: rgb(51, 51, 51); fill: none; stroke-width: 1px;"/></g></g></g><g id="node-conv2d_1/Relu:0_pooling" class="node" transform="translate(50,228.50000667572021)" style="opacity: 1;"><g transform="translate(-29.25,-10.500000953674316)"><g><g class="node-item node-item-operator node-item-operator-pool" transform="translate(0,0)"><path d="M5,0h48.5a5,5 0 0 1 5,5v11a5,5 0 0 1 -5,5h-48.5a5,5 0 0 1 -5,-5v-11a5,5 0 0 1 5,-5z" style="stroke: rgb(0, 0, 0); fill: rgb(51, 85, 51); stroke-width: 0;"/><text x="6" y="15" style="font-family: -apple-system, BlinkMacSystemFont, &quot;Segoe WPC&quot;, &quot;Segoe UI&quot;, Ubuntu, &quot;Droid Sans&quot;, sans-serif; font-size: 11px; text-rendering: geometricprecision; fill: rgb(255, 255, 255);">MaxPool</text><title>conv2d_1/Relu:0_pooling</title></g><path class="node border" d="M5,0h48.5a5,5 0 0 1 5,5v11a5,5 0 0 1 -5,5h-48.5a5,5 0 0 1 -5,-5v-11a5,5 0 0 1 5,-5z" style="stroke: rgb(51, 51, 51); fill: none; stroke-width: 1px;"/></g></g></g><g id="node-conv2d_2" class="node" transform="translate(50,285.50000762939453)" style="opacity: 1;"><g transform="translate(-50,-26.5)"><g><g class="node-item node-item-operator node-item-operator-layer" transform="translate(0,0)"><path d="M5,0h90a5,5 0 0 1 5,5v16a0,0 0 0 1 0,0h-100a0,0 0 0 1 0,0v-16a5,5 0 0 1 5,-5z" style="stroke: rgb(0, 0, 0); fill: rgb(51, 85, 136); stroke-width: 0;"/><text x="6" y="15" style="font-family: -apple-system, BlinkMacSystemFont, &quot;Segoe WPC&quot;, &quot;Segoe UI&quot;, Ubuntu, &quot;Droid Sans&quot;, sans-serif; font-size: 11px; text-rendering: geometricprecision; fill: rgb(255, 255, 255);">Conv</text><title>conv2d_2</title></g><g class="node-attribute" transform="translate(0,21)"><path d="M0,0h100a0,0 0 0 1 0,0v27a5,5 0 0 1 -5,5h-90a5,5 0 0 1 -5,-5v-27a0,0 0 0 1 0,0z" style="stroke: rgb(0, 0, 0); fill: rgb(255, 255, 255); stroke-width: 0;"/><text id="initializer-conv2d_2/kernel:0" xml:space="preserve" x="6" y="13" style="font-family: -apple-system, BlinkMacSystemFont, &quot;Segoe WPC&quot;, &quot;Segoe UI&quot;, Ubuntu, &quot;Droid Sans&quot;, sans-serif; font-size: 9px; font-weight: normal; text-rendering: geometricprecision;"><title>float32[20,32,3,3]</title><tspan style="font-weight: bold;">W</tspan><tspan>〈20×32×3×3〉</tspan></text><text id="initializer-conv2d_2/bias:0" xml:space="preserve" x="6" y="26" style="font-family: -apple-system, BlinkMacSystemFont, &quot;Segoe WPC&quot;, &quot;Segoe UI&quot;, Ubuntu, &quot;Droid Sans&quot;, sans-serif; font-size: 9px; font-weight: normal; text-rendering: geometricprecision;"><title>float32[20]</title><tspan style="font-weight: bold;">B</tspan><tspan>〈20〉</tspan></text><line class="node" x1="0" x2="100" y1="0" y2="0" style="stroke: rgb(51, 51, 51); fill: none; stroke-width: 1px;"/></g><path class="node border" d="M5,0h90a5,5 0 0 1 5,5v43a5,5 0 0 1 -5,5h-90a5,5 0 0 1 -5,-5v-43a5,5 0 0 1 5,-5z" style="stroke: rgb(51, 51, 51); fill: none; stroke-width: 1px;"/></g></g></g><g id="node-Relu3" class="node" transform="translate(50,342.50000858306885)" style="opacity: 1;"><g transform="translate(-18.3828125,-10.500000953674316)"><g><g class="node-item node-item-operator node-item-operator-activation" transform="translate(0,0)"><path d="M5,0h26.765625a5,5 0 0 1 5,5v11a5,5 0 0 1 -5,5h-26.765625a5,5 0 0 1 -5,-5v-11a5,5 0 0 1 5,-5z" style="stroke: rgb(0, 0, 0); fill: rgb(75, 27, 22); stroke-width: 0;"/><text x="6" y="15" style="font-family: -apple-system, BlinkMacSystemFont, &quot;Segoe WPC&quot;, &quot;Segoe UI&quot;, Ubuntu, &quot;Droid Sans&quot;, sans-serif; font-size: 11px; text-rendering: geometricprecision; fill: rgb(255, 255, 255);">Relu</text><title>Relu3</title></g><path class="node border" d="M5,0h26.765625a5,5 0 0 1 5,5v11a5,5 0 0 1 -5,5h-26.765625a5,5 0 0 1 -5,-5v-11a5,5 0 0 1 5,-5z" style="stroke: rgb(51, 51, 51); fill: none; stroke-width: 1px;"/></g></g></g><g id="node-conv2d_2/Relu:0_pooling" class="node" transform="translate(50,383.5000104904175)" style="opacity: 1;"><g transform="translate(-29.25,-10.500000953674316)"><g><g class="node-item node-item-operator node-item-operator-pool" transform="translate(0,0)"><path d="M5,0h48.5a5,5 0 0 1 5,5v11a5,5 0 0 1 -5,5h-48.5a5,5 0 0 1 -5,-5v-11a5,5 0 0 1 5,-5z" style="stroke: rgb(0, 0, 0); fill: rgb(51, 85, 51); stroke-width: 0;"/><text x="6" y="15" style="font-family: -apple-system, BlinkMacSystemFont, &quot;Segoe WPC&quot;, &quot;Segoe UI&quot;, Ubuntu, &quot;Droid Sans&quot;, sans-serif; font-size: 11px; text-rendering: geometricprecision; fill: rgb(255, 255, 255);">MaxPool</text><title>conv2d_2/Relu:0_pooling</title></g><path class="node border" d="M5,0h48.5a5,5 0 0 1 5,5v11a5,5 0 0 1 -5,5h-48.5a5,5 0 0 1 -5,-5v-11a5,5 0 0 1 5,-5z" style="stroke: rgb(51, 51, 51); fill: none; stroke-width: 1px;"/></g></g></g><g id="node-conv2d_3" class="node" transform="translate(50,440.5000114440918)" style="opacity: 1;"><g transform="translate(-50,-26.5)"><g><g class="node-item node-item-operator node-item-operator-layer" transform="translate(0,0)"><path d="M5,0h90a5,5 0 0 1 5,5v16a0,0 0 0 1 0,0h-100a0,0 0 0 1 0,0v-16a5,5 0 0 1 5,-5z" style="stroke: rgb(0, 0, 0); fill: rgb(51, 85, 136); stroke-width: 0;"/><text x="6" y="15" style="font-family: -apple-system, BlinkMacSystemFont, &quot;Segoe WPC&quot;, &quot;Segoe UI&quot;, Ubuntu, &quot;Droid Sans&quot;, sans-serif; font-size: 11px; text-rendering: geometricprecision; fill: rgb(255, 255, 255);">Conv</text><title>conv2d_3</title></g><g class="node-attribute" transform="translate(0,21)"><path d="M0,0h100a0,0 0 0 1 0,0v27a5,5 0 0 1 -5,5h-90a5,5 0 0 1 -5,-5v-27a0,0 0 0 1 0,0z" style="stroke: rgb(0, 0, 0); fill: rgb(255, 255, 255); stroke-width: 0;"/><text id="initializer-conv2d_3/kernel:0" xml:space="preserve" x="6" y="13" style="font-family: -apple-system, BlinkMacSystemFont, &quot;Segoe WPC&quot;, &quot;Segoe UI&quot;, Ubuntu, &quot;Droid Sans&quot;, sans-serif; font-size: 9px; font-weight: normal; text-rendering: geometricprecision;"><title>float32[12,20,3,3]</title><tspan style="font-weight: bold;">W</tspan><tspan>〈12×20×3×3〉</tspan></text><text id="initializer-conv2d_3/bias:0" xml:space="preserve" x="6" y="26" style="font-family: -apple-system, BlinkMacSystemFont, &quot;Segoe WPC&quot;, &quot;Segoe UI&quot;, Ubuntu, &quot;Droid Sans&quot;, sans-serif; font-size: 9px; font-weight: normal; text-rendering: geometricprecision;"><title>float32[12]</title><tspan style="font-weight: bold;">B</tspan><tspan>〈12〉</tspan></text><line class="node" x1="0" x2="100" y1="0" y2="0" style="stroke: rgb(51, 51, 51); fill: none; stroke-width: 1px;"/></g><path class="node border" d="M5,0h90a5,5 0 0 1 5,5v43a5,5 0 0 1 -5,5h-90a5,5 0 0 1 -5,-5v-43a5,5 0 0 1 5,-5z" style="stroke: rgb(51, 51, 51); fill: none; stroke-width: 1px;"/></g></g></g><g id="node-Relu2" class="node" transform="translate(50,497.5000123977661)" style="opacity: 1;"><g transform="translate(-18.3828125,-10.500000953674316)"><g><g class="node-item node-item-operator node-item-operator-activation" transform="translate(0,0)"><path d="M5,0h26.765625a5,5 0 0 1 5,5v11a5,5 0 0 1 -5,5h-26.765625a5,5 0 0 1 -5,-5v-11a5,5 0 0 1 5,-5z" style="stroke: rgb(0, 0, 0); fill: rgb(75, 27, 22); stroke-width: 0;"/><text x="6" y="15" style="font-family: -apple-system, BlinkMacSystemFont, &quot;Segoe WPC&quot;, &quot;Segoe UI&quot;, Ubuntu, &quot;Droid Sans&quot;, sans-serif; font-size: 11px; text-rendering: geometricprecision; fill: rgb(255, 255, 255);">Relu</text><title>Relu2</title></g><path class="node border" d="M5,0h26.765625a5,5 0 0 1 5,5v11a5,5 0 0 1 -5,5h-26.765625a5,5 0 0 1 -5,-5v-11a5,5 0 0 1 5,-5z" style="stroke: rgb(51, 51, 51); fill: none; stroke-width: 1px;"/></g></g></g><g id="node-conv2d_3/Relu:0_pooling" class="node" transform="translate(50,538.5000143051147)" style="opacity: 1;"><g transform="translate(-29.25,-10.500000953674316)"><g><g class="node-item node-item-operator node-item-operator-pool" transform="translate(0,0)"><path d="M5,0h48.5a5,5 0 0 1 5,5v11a5,5 0 0 1 -5,5h-48.5a5,5 0 0 1 -5,-5v-11a5,5 0 0 1 5,-5z" style="stroke: rgb(0, 0, 0); fill: rgb(51, 85, 51); stroke-width: 0;"/><text x="6" y="15" style="font-family: -apple-system, BlinkMacSystemFont, &quot;Segoe WPC&quot;, &quot;Segoe UI&quot;, Ubuntu, &quot;Droid Sans&quot;, sans-serif; font-size: 11px; text-rendering: geometricprecision; fill: rgb(255, 255, 255);">MaxPool</text><title>conv2d_3/Relu:0_pooling</title></g><path class="node border" d="M5,0h48.5a5,5 0 0 1 5,5v11a5,5 0 0 1 -5,5h-48.5a5,5 0 0 1 -5,-5v-11a5,5 0 0 1 5,-5z" style="stroke: rgb(51, 51, 51); fill: none; stroke-width: 1px;"/></g></g></g><g id="node-conv2d_4" class="node" transform="translate(50,595.5000152587891)" style="opacity: 1;"><g transform="translate(-50,-26.5)"><g><g class="node-item node-item-operator node-item-operator-layer" transform="translate(0,0)"><path d="M5,0h90a5,5 0 0 1 5,5v16a0,0 0 0 1 0,0h-100a0,0 0 0 1 0,0v-16a5,5 0 0 1 5,-5z" style="stroke: rgb(0, 0, 0); fill: rgb(51, 85, 136); stroke-width: 0;"/><text x="6" y="15" style="font-family: -apple-system, BlinkMacSystemFont, &quot;Segoe WPC&quot;, &quot;Segoe UI&quot;, Ubuntu, &quot;Droid Sans&quot;, sans-serif; font-size: 11px; text-rendering: geometricprecision; fill: rgb(255, 255, 255);">Conv</text><title>conv2d_4</title></g><g class="node-attribute" transform="translate(0,21)"><path d="M0,0h100a0,0 0 0 1 0,0v27a5,5 0 0 1 -5,5h-90a5,5 0 0 1 -5,-5v-27a0,0 0 0 1 0,0z" style="stroke: rgb(0, 0, 0); fill: rgb(255, 255, 255); stroke-width: 0;"/><text id="initializer-conv2d_4/kernel:0" xml:space="preserve" x="6" y="13" style="font-family: -apple-system, BlinkMacSystemFont, &quot;Segoe WPC&quot;, &quot;Segoe UI&quot;, Ubuntu, &quot;Droid Sans&quot;, sans-serif; font-size: 9px; font-weight: normal; text-rendering: geometricprecision;"><title>float32[8,12,3,3]</title><tspan style="font-weight: bold;">W</tspan><tspan>〈8×12×3×3〉</tspan></text><text id="initializer-conv2d_4/bias:0" xml:space="preserve" x="6" y="26" style="font-family: -apple-system, BlinkMacSystemFont, &quot;Segoe WPC&quot;, &quot;Segoe UI&quot;, Ubuntu, &quot;Droid Sans&quot;, sans-serif; font-size: 9px; font-weight: normal; text-rendering: geometricprecision;"><title>float32[8]</title><tspan style="font-weight: bold;">B</tspan><tspan>〈8〉</tspan></text><line class="node" x1="0" x2="100" y1="0" y2="0" style="stroke: rgb(51, 51, 51); fill: none; stroke-width: 1px;"/></g><path class="node border" d="M5,0h90a5,5 0 0 1 5,5v43a5,5 0 0 1 -5,5h-90a5,5 0 0 1 -5,-5v-43a5,5 0 0 1 5,-5z" style="stroke: rgb(51, 51, 51); fill: none; stroke-width: 1px;"/></g></g></g><g id="node-Relu1" class="node" transform="translate(50,652.5000162124634)" style="opacity: 1;"><g transform="translate(-18.3828125,-10.500000953674316)"><g><g class="node-item node-item-operator node-item-operator-activation" transform="translate(0,0)"><path d="M5,0h26.765625a5,5 0 0 1 5,5v11a5,5 0 0 1 -5,5h-26.765625a5,5 0 0 1 -5,-5v-11a5,5 0 0 1 5,-5z" style="stroke: rgb(0, 0, 0); fill: rgb(75, 27, 22); stroke-width: 0;"/><text x="6" y="15" style="font-family: -apple-system, BlinkMacSystemFont, &quot;Segoe WPC&quot;, &quot;Segoe UI&quot;, Ubuntu, &quot;Droid Sans&quot;, sans-serif; font-size: 11px; text-rendering: geometricprecision; fill: rgb(255, 255, 255);">Relu</text><title>Relu1</title></g><path class="node border" d="M5,0h26.765625a5,5 0 0 1 5,5v11a5,5 0 0 1 -5,5h-26.765625a5,5 0 0 1 -5,-5v-11a5,5 0 0 1 5,-5z" style="stroke: rgb(51, 51, 51); fill: none; stroke-width: 1px;"/></g></g></g><g id="node-conv2d_4/Relu:0_pooling" class="node" transform="translate(50,693.500018119812)" style="opacity: 1;"><g transform="translate(-29.25,-10.500000953674316)"><g><g class="node-item node-item-operator node-item-operator-pool" transform="translate(0,0)"><path d="M5,0h48.5a5,5 0 0 1 5,5v11a5,5 0 0 1 -5,5h-48.5a5,5 0 0 1 -5,-5v-11a5,5 0 0 1 5,-5z" style="stroke: rgb(0, 0, 0); fill: rgb(51, 85, 51); stroke-width: 0;"/><text x="6" y="15" style="font-family: -apple-system, BlinkMacSystemFont, &quot;Segoe WPC&quot;, &quot;Segoe UI&quot;, Ubuntu, &quot;Droid Sans&quot;, sans-serif; font-size: 11px; text-rendering: geometricprecision; fill: rgb(255, 255, 255);">MaxPool</text><title>conv2d_4/Relu:0_pooling</title></g><path class="node border" d="M5,0h48.5a5,5 0 0 1 5,5v11a5,5 0 0 1 -5,5h-48.5a5,5 0 0 1 -5,-5v-11a5,5 0 0 1 5,-5z" style="stroke: rgb(51, 51, 51); fill: none; stroke-width: 1px;"/></g></g></g><g id="node-conv2d_4/Relu:0_transpose" class="node" transform="translate(50,734.5000200271606)" style="opacity: 1;"><g transform="translate(-34.21875,-10.500000953674316)"><g><g class="node-item node-item-operator node-item-operator-shape" transform="translate(0,0)"><path d="M5,0h58.4375a5,5 0 0 1 5,5v11a5,5 0 0 1 -5,5h-58.4375a5,5 0 0 1 -5,-5v-11a5,5 0 0 1 5,-5z" style="stroke: rgb(0, 0, 0); fill: rgb(108, 79, 71); stroke-width: 0;"/><text x="6" y="15" style="font-family: -apple-system, BlinkMacSystemFont, &quot;Segoe WPC&quot;, &quot;Segoe UI&quot;, Ubuntu, &quot;Droid Sans&quot;, sans-serif; font-size: 11px; text-rendering: geometricprecision; fill: rgb(255, 255, 255);">Transpose</text><title>conv2d_4/Relu:0_transpose</title></g><path class="node border" d="M5,0h58.4375a5,5 0 0 1 5,5v11a5,5 0 0 1 -5,5h-58.4375a5,5 0 0 1 -5,-5v-11a5,5 0 0 1 5,-5z" style="stroke: rgb(51, 51, 51); fill: none; stroke-width: 1px;"/></g></g></g><g id="node-flatten_1" class="node" transform="translate(50,785.000020980835)" style="opacity: 1;"><g transform="translate(-50,-20)"><g><g class="node-item node-item-operator node-item-operator-shape" transform="translate(0,0)"><path d="M5,0h90a5,5 0 0 1 5,5v16a0,0 0 0 1 0,0h-100a0,0 0 0 1 0,0v-16a5,5 0 0 1 5,-5z" style="stroke: rgb(0, 0, 0); fill: rgb(108, 79, 71); stroke-width: 0;"/><text x="6" y="15" style="font-family: -apple-system, BlinkMacSystemFont, &quot;Segoe WPC&quot;, &quot;Segoe UI&quot;, Ubuntu, &quot;Droid Sans&quot;, sans-serif; font-size: 11px; text-rendering: geometricprecision; fill: rgb(255, 255, 255);">Reshape</text><title>flatten_1</title></g><g class="node-attribute" transform="translate(0,21)"><path d="M0,0h100a0,0 0 0 1 0,0v14a5,5 0 0 1 -5,5h-90a5,5 0 0 1 -5,-5v-14a0,0 0 0 1 0,0z" style="stroke: rgb(0, 0, 0); fill: rgb(255, 255, 255); stroke-width: 0;"/><text id="initializer-shape_tensor" xml:space="preserve" x="6" y="13" style="font-family: -apple-system, BlinkMacSystemFont, &quot;Segoe WPC&quot;, &quot;Segoe UI&quot;, Ubuntu, &quot;Droid Sans&quot;, sans-serif; font-size: 9px; font-weight: normal; text-rendering: geometricprecision;"><title>int64[2]</title><tspan style="font-weight: bold;">shape</tspan><tspan>〈2〉</tspan></text><line class="node" x1="0" x2="100" y1="0" y2="0" style="stroke: rgb(51, 51, 51); fill: none; stroke-width: 1px;"/></g><path class="node border" d="M5,0h90a5,5 0 0 1 5,5v30a5,5 0 0 1 -5,5h-90a5,5 0 0 1 -5,-5v-30a5,5 0 0 1 5,-5z" style="stroke: rgb(51, 51, 51); fill: none; stroke-width: 1px;"/></g></g></g><g id="node-dense_1" class="node" transform="translate(50,845.000020980835)" style="opacity: 1;"><g transform="translate(-50,-20)"><g><g class="node-item node-item-operator" transform="translate(0,0)"><path d="M5,0h90a5,5 0 0 1 5,5v16a0,0 0 0 1 0,0h-100a0,0 0 0 1 0,0v-16a5,5 0 0 1 5,-5z" style="stroke: rgb(0, 0, 0); fill: rgb(0, 0, 0); stroke-width: 0;"/><text x="6" y="15" style="font-family: -apple-system, BlinkMacSystemFont, &quot;Segoe WPC&quot;, &quot;Segoe UI&quot;, Ubuntu, &quot;Droid Sans&quot;, sans-serif; font-size: 11px; text-rendering: geometricprecision; fill: rgb(255, 255, 255);">MatMul</text><title>dense_1</title></g><g class="node-attribute" transform="translate(0,21)"><path d="M0,0h100a0,0 0 0 1 0,0v14a5,5 0 0 1 -5,5h-90a5,5 0 0 1 -5,-5v-14a0,0 0 0 1 0,0z" style="stroke: rgb(0, 0, 0); fill: rgb(255, 255, 255); stroke-width: 0;"/><text id="initializer-dense_1/kernel:0" xml:space="preserve" x="6" y="13" style="font-family: -apple-system, BlinkMacSystemFont, &quot;Segoe WPC&quot;, &quot;Segoe UI&quot;, Ubuntu, &quot;Droid Sans&quot;, sans-serif; font-size: 9px; font-weight: normal; text-rendering: geometricprecision;"><title>float32[288,128]</title><tspan style="font-weight: bold;">B</tspan><tspan>〈288×128〉</tspan></text><line class="node" x1="0" x2="100" y1="0" y2="0" style="stroke: rgb(51, 51, 51); fill: none; stroke-width: 1px;"/></g><path class="node border" d="M5,0h90a5,5 0 0 1 5,5v30a5,5 0 0 1 -5,5h-90a5,5 0 0 1 -5,-5v-30a5,5 0 0 1 5,-5z" style="stroke: rgb(51, 51, 51); fill: none; stroke-width: 1px;"/></g></g></g><g id="node-Add1" class="node" transform="translate(50,905.000020980835)" style="opacity: 1;"><g transform="translate(-50,-20)"><g><g class="node-item node-item-operator" transform="translate(0,0)"><path d="M5,0h90a5,5 0 0 1 5,5v16a0,0 0 0 1 0,0h-100a0,0 0 0 1 0,0v-16a5,5 0 0 1 5,-5z" style="stroke: rgb(0, 0, 0); fill: rgb(0, 0, 0); stroke-width: 0;"/><text x="6" y="15" style="font-family: -apple-system, BlinkMacSystemFont, &quot;Segoe WPC&quot;, &quot;Segoe UI&quot;, Ubuntu, &quot;Droid Sans&quot;, sans-serif; font-size: 11px; text-rendering: geometricprecision; fill: rgb(255, 255, 255);">Add</text><title>Add1</title></g><g class="node-attribute" transform="translate(0,21)"><path d="M0,0h100a0,0 0 0 1 0,0v14a5,5 0 0 1 -5,5h-90a5,5 0 0 1 -5,-5v-14a0,0 0 0 1 0,0z" style="stroke: rgb(0, 0, 0); fill: rgb(255, 255, 255); stroke-width: 0;"/><text id="initializer-dense_1/bias:0" xml:space="preserve" x="6" y="13" style="font-family: -apple-system, BlinkMacSystemFont, &quot;Segoe WPC&quot;, &quot;Segoe UI&quot;, Ubuntu, &quot;Droid Sans&quot;, sans-serif; font-size: 9px; font-weight: normal; text-rendering: geometricprecision;"><title>float32[128]</title><tspan style="font-weight: bold;">B</tspan><tspan>〈128〉</tspan></text><line class="node" x1="0" x2="100" y1="0" y2="0" style="stroke: rgb(51, 51, 51); fill: none; stroke-width: 1px;"/></g><path class="node border" d="M5,0h90a5,5 0 0 1 5,5v30a5,5 0 0 1 -5,5h-90a5,5 0 0 1 -5,-5v-30a5,5 0 0 1 5,-5z" style="stroke: rgb(51, 51, 51); fill: none; stroke-width: 1px;"/></g></g></g><g id="node-Relu" class="node" transform="translate(50,955.5000219345093)" style="opacity: 1;"><g transform="translate(-18.3828125,-10.500000953674316)"><g><g class="node-item node-item-operator node-item-operator-activation" transform="translate(0,0)"><path d="M5,0h26.765625a5,5 0 0 1 5,5v11a5,5 0 0 1 -5,5h-26.765625a5,5 0 0 1 -5,-5v-11a5,5 0 0 1 5,-5z" style="stroke: rgb(0, 0, 0); fill: rgb(75, 27, 22); stroke-width: 0;"/><text x="6" y="15" style="font-family: -apple-system, BlinkMacSystemFont, &quot;Segoe WPC&quot;, &quot;Segoe UI&quot;, Ubuntu, &quot;Droid Sans&quot;, sans-serif; font-size: 11px; text-rendering: geometricprecision; fill: rgb(255, 255, 255);">Relu</text><title>Relu</title></g><path class="node border" d="M5,0h26.765625a5,5 0 0 1 5,5v11a5,5 0 0 1 -5,5h-26.765625a5,5 0 0 1 -5,-5v-11a5,5 0 0 1 5,-5z" style="stroke: rgb(51, 51, 51); fill: none; stroke-width: 1px;"/></g></g></g><g id="node-dense_2" class="node" transform="translate(50,1006.0000228881836)" style="opacity: 1;"><g transform="translate(-50,-20)"><g><g class="node-item node-item-operator" transform="translate(0,0)"><path d="M5,0h90a5,5 0 0 1 5,5v16a0,0 0 0 1 0,0h-100a0,0 0 0 1 0,0v-16a5,5 0 0 1 5,-5z" style="stroke: rgb(0, 0, 0); fill: rgb(0, 0, 0); stroke-width: 0;"/><text x="6" y="15" style="font-family: -apple-system, BlinkMacSystemFont, &quot;Segoe WPC&quot;, &quot;Segoe UI&quot;, Ubuntu, &quot;Droid Sans&quot;, sans-serif; font-size: 11px; text-rendering: geometricprecision; fill: rgb(255, 255, 255);">MatMul</text><title>dense_2</title></g><g class="node-attribute" transform="translate(0,21)"><path d="M0,0h100a0,0 0 0 1 0,0v14a5,5 0 0 1 -5,5h-90a5,5 0 0 1 -5,-5v-14a0,0 0 0 1 0,0z" style="stroke: rgb(0, 0, 0); fill: rgb(255, 255, 255); stroke-width: 0;"/><text id="initializer-dense_2/kernel:0" xml:space="preserve" x="6" y="13" style="font-family: -apple-system, BlinkMacSystemFont, &quot;Segoe WPC&quot;, &quot;Segoe UI&quot;, Ubuntu, &quot;Droid Sans&quot;, sans-serif; font-size: 9px; font-weight: normal; text-rendering: geometricprecision;"><title>float32[128,1]</title><tspan style="font-weight: bold;">B</tspan><tspan>〈128×1〉</tspan></text><line class="node" x1="0" x2="100" y1="0" y2="0" style="stroke: rgb(51, 51, 51); fill: none; stroke-width: 1px;"/></g><path class="node border" d="M5,0h90a5,5 0 0 1 5,5v30a5,5 0 0 1 -5,5h-90a5,5 0 0 1 -5,-5v-30a5,5 0 0 1 5,-5z" style="stroke: rgb(51, 51, 51); fill: none; stroke-width: 1px;"/></g></g></g><g id="node-Add" class="node" transform="translate(50,1066.0000228881836)" style="opacity: 1;"><g transform="translate(-50,-20)"><g><g class="node-item node-item-operator" transform="translate(0,0)"><path d="M5,0h90a5,5 0 0 1 5,5v16a0,0 0 0 1 0,0h-100a0,0 0 0 1 0,0v-16a5,5 0 0 1 5,-5z" style="stroke: rgb(0, 0, 0); fill: rgb(0, 0, 0); stroke-width: 0;"/><text x="6" y="15" style="font-family: -apple-system, BlinkMacSystemFont, &quot;Segoe WPC&quot;, &quot;Segoe UI&quot;, Ubuntu, &quot;Droid Sans&quot;, sans-serif; font-size: 11px; text-rendering: geometricprecision; fill: rgb(255, 255, 255);">Add</text><title>Add</title></g><g class="node-attribute" transform="translate(0,21)"><path d="M0,0h100a0,0 0 0 1 0,0v14a5,5 0 0 1 -5,5h-90a5,5 0 0 1 -5,-5v-14a0,0 0 0 1 0,0z" style="stroke: rgb(0, 0, 0); fill: rgb(255, 255, 255); stroke-width: 0;"/><text id="initializer-dense_2/bias:0" xml:space="preserve" x="6" y="13" style="font-family: -apple-system, BlinkMacSystemFont, &quot;Segoe WPC&quot;, &quot;Segoe UI&quot;, Ubuntu, &quot;Droid Sans&quot;, sans-serif; font-size: 9px; font-weight: normal; text-rendering: geometricprecision;"><title>float32[1]</title><tspan style="font-weight: bold;">B</tspan><tspan>〈1〉</tspan></text><line class="node" x1="0" x2="100" y1="0" y2="0" style="stroke: rgb(51, 51, 51); fill: none; stroke-width: 1px;"/></g><path class="node border" d="M5,0h90a5,5 0 0 1 5,5v30a5,5 0 0 1 -5,5h-90a5,5 0 0 1 -5,-5v-30a5,5 0 0 1 5,-5z" style="stroke: rgb(51, 51, 51); fill: none; stroke-width: 1px;"/></g></g></g><g id="node-Sigmoid" class="node" transform="translate(50,1116.617211341858)" style="opacity: 1;"><g transform="translate(-28.203125,-10.617188453674316)"><g><g class="node-item node-item-operator node-item-operator-activation" transform="translate(0,0)"><path d="M5,0h46.40625a5,5 0 0 1 5,5v11.234375a5,5 0 0 1 -5,5h-46.40625a5,5 0 0 1 -5,-5v-11.234375a5,5 0 0 1 5,-5z" style="stroke: rgb(0, 0, 0); fill: rgb(75, 27, 22); stroke-width: 0;"/><text x="6" y="15" style="font-family: -apple-system, BlinkMacSystemFont, &quot;Segoe WPC&quot;, &quot;Segoe UI&quot;, Ubuntu, &quot;Droid Sans&quot;, sans-serif; font-size: 11px; text-rendering: geometricprecision; fill: rgb(255, 255, 255);">Sigmoid</text><title>Sigmoid</title></g><path class="node border" d="M5,0h46.40625a5,5 0 0 1 5,5v11.234375a5,5 0 0 1 -5,5h-46.40625a5,5 0 0 1 -5,-5v-11.234375a5,5 0 0 1 5,-5z" style="stroke: rgb(51, 51, 51); fill: none; stroke-width: 1px;"/></g></g></g><g id="node-Identity4" class="node" transform="translate(50,1157.7890872955322)" style="opacity: 1;"><g transform="translate(-26.796875,-10.5546875)"><g><g class="node-item node-item-operator" transform="translate(0,0)"><path d="M5,0h43.59375a5,5 0 0 1 5,5v11.109375a5,5 0 0 1 -5,5h-43.59375a5,5 0 0 1 -5,-5v-11.109375a5,5 0 0 1 5,-5z" style="stroke: rgb(0, 0, 0); fill: rgb(0, 0, 0); stroke-width: 0;"/><text x="6" y="15" style="font-family: -apple-system, BlinkMacSystemFont, &quot;Segoe WPC&quot;, &quot;Segoe UI&quot;, Ubuntu, &quot;Droid Sans&quot;, sans-serif; font-size: 11px; text-rendering: geometricprecision; fill: rgb(255, 255, 255);">Identity</text><title>Identity4</title></g><path class="node border" d="M5,0h43.59375a5,5 0 0 1 5,5v11.109375a5,5 0 0 1 -5,5h-43.59375a5,5 0 0 1 -5,-5v-11.109375a5,5 0 0 1 5,-5z" style="stroke: rgb(51, 51, 51); fill: none; stroke-width: 1px;"/></g></g></g><g class="node graph-input" transform="translate(50,10.500000953674316)" style="opacity: 1;"><g transform="translate(-46.5546875,-10.500000953674316)"><g><g class="node-item graph-item-input" transform="translate(0,0)"><path d="M5,0h83.109375a5,5 0 0 1 5,5v11a5,5 0 0 1 -5,5h-83.109375a5,5 0 0 1 -5,-5v-11a5,5 0 0 1 5,-5z" style="stroke: rgb(0, 0, 0); fill: rgb(238, 238, 238); stroke-width: 0;"/><text x="6" y="15" style="font-family: -apple-system, BlinkMacSystemFont, &quot;Segoe WPC&quot;, &quot;Segoe UI&quot;, Ubuntu, &quot;Droid Sans&quot;, sans-serif; font-size: 11px; text-rendering: geometricprecision;">conv2d_1_input</text><title>float32[N,128,128,3]</title></g><path class="node border" d="M5,0h83.109375a5,5 0 0 1 5,5v11a5,5 0 0 1 -5,5h-83.109375a5,5 0 0 1 -5,-5v-11a5,5 0 0 1 5,-5z" style="stroke: rgb(51, 51, 51); fill: none; stroke-width: 1px;"/></g></g></g><g class="node" transform="translate(50,1220.9609632492065)" style="opacity: 1;"><g transform="translate(-33.3671875,-10.617188453674316)"><g><g class="node-item graph-item-output" transform="translate(0,0)"><path d="M5,0h56.734375a5,5 0 0 1 5,5v11.234375a5,5 0 0 1 -5,5h-56.734375a5,5 0 0 1 -5,-5v-11.234375a5,5 0 0 1 5,-5z" style="stroke: rgb(0, 0, 0); fill: rgb(238, 238, 238); stroke-width: 0;"/><text x="6" y="15" style="font-family: -apple-system, BlinkMacSystemFont, &quot;Segoe WPC&quot;, &quot;Segoe UI&quot;, Ubuntu, &quot;Droid Sans&quot;, sans-serif; font-size: 11px; text-rendering: geometricprecision;">Sigmoid:0</text><title>float32[N,1]</title></g><path class="node border" d="M5,0h56.734375a5,5 0 0 1 5,5v11.234375a5,5 0 0 1 -5,5h-56.734375a5,5 0 0 1 -5,-5v-11.234375a5,5 0 0 1 5,-5z" style="stroke: rgb(51, 51, 51); fill: none; stroke-width: 1px;"/></g></g></g></g></g></svg>